<svg width="90" height="90" viewBox="0 0 90 90" fill="none" xmlns="http://www.w3.org/2000/svg">
<path d="M43.7991 1.06678C43.968 -0.355592 46.032 -0.355592 46.2009 1.06678L47.6167 12.9992C49.4449 28.4071 61.5929 40.5551 77.0007 42.3833L88.9331 43.7991C90.3556 43.968 90.3556 46.032 88.9331 46.2009L77.0007 47.6167C61.5929 49.4449 49.4449 61.5929 47.6167 77.0007L46.2009 88.9331C46.032 90.3556 43.968 90.3556 43.7991 88.9331L42.3833 77.0007C40.5551 61.5929 28.4071 49.4449 12.9992 47.6167L1.06678 46.2009C-0.355592 46.032 -0.355592 43.968 1.06678 43.7991L12.9992 42.3833C28.4071 40.5551 40.5551 28.4071 42.3833 12.9992L43.7991 1.06678Z" fill="url(#paint0_linear_64_306)"/>
<defs>
<linearGradient id="paint0_linear_64_306" x1="-12.4839" y1="65" x2="108.881" y2="65.4046" gradientUnits="userSpaceOnUse">
<stop stop-color="#83FF8F"/>
<stop offset="1" stop-color="#CC7FF0"/>
</linearGradient>
</defs>
</svg>
