<svg width="78" height="50" viewBox="0 0 78 50" fill="none" xmlns="http://www.w3.org/2000/svg">
<path fill-rule="evenodd" clip-rule="evenodd" d="M56.223 10.7712C58.4626 9.32193 61.4539 9.96273 62.9032 12.2024L73.3996 28.4238C74.8485 30.6634 74.2081 33.6538 71.9686 35.103L55.7472 45.5994C53.5076 47.0486 50.5172 46.408 49.0679 44.1685L38.5716 27.947C38.543 27.903 38.5167 27.8578 38.4897 27.8131C38.2315 28.0849 37.939 28.3324 37.6104 28.545L21.389 39.0414C19.1493 40.4905 16.1589 39.85 14.7097 37.6104L4.21331 21.389C2.76424 19.1494 3.40472 16.159 5.64428 14.7098L21.8647 4.21319C24.1044 2.76391 27.0957 3.40471 28.5449 5.64435L39.0413 21.8658C39.0696 21.9095 39.0957 21.9543 39.1224 21.9985C39.3805 21.7269 39.674 21.4803 40.0025 21.2678L56.223 10.7712Z" fill="url(#paint0_linear_64_442)"/>
<defs>
<linearGradient id="paint0_linear_64_442" x1="-7.87817" y1="24.3611" x2="87.3125" y2="43.1712" gradientUnits="userSpaceOnUse">
<stop stop-color="#83FF8F"/>
<stop offset="1" stop-color="#CC7FF0"/>
</linearGradient>
</defs>
</svg>
